<?xml version="1.0" encoding="UTF-8"?>
<svg id="Layer_2" data-name="Layer 2" xmlns="http://www.w3.org/2000/svg" viewBox="0 0 407.07 455.44">
    <defs>
        <style>
            /* --- Base Path Styling --- */
            #Layer_2-2 g path {
            stroke-width: 2px;
            stroke-dasharray: 3000;
            stroke-dashoffset: 3000;

            /* --- Animation Properties --- */
            animation-duration: 16s; /* Total duration for both light and dark cycles */
            animation-timing-function: ease-in-out;
            animation-iteration-count: infinite;
            }

            /* --- Animation for Outer Path (Black -> White) --- */
            #Layer_2-2 g path:first-child {
            animation-name: outer-cycle;
            }

            /* --- Animation for Inner Paths (White -> Black) --- */
            #Layer_2-2 g path:first-child ~ path {
            animation-name: inner-cycle;
            }

            /* --- Keyframes for Outer Path Cycle --- */
            @keyframes outer-cycle {
            /* === LIGHT MODE CYCLE (0% to 50%) === */
            0%, 49.9% { stroke: #000; fill: #000; }
            0%      { stroke-dashoffset: 3000; fill-opacity: 0; }
            12.5%   { stroke-dashoffset: 0;    fill-opacity: 0; } /* 2s: Draw complete */
            25%     { stroke-dashoffset: 0;    fill-opacity: 1; } /* 4s: Fill complete */
            37.5%   { stroke-dashoffset: 0;    fill-opacity: 0; } /* 6s: Un-fill complete */
            50%     { stroke-dashoffset: 3000; fill-opacity: 0; } /* 8s: Un-draw complete */

            /* === DARK MODE CYCLE (50% to 100%) === */
            50.01%, 100% { stroke: #fff; fill: #fff; }
            50.01%  { stroke-dashoffset: 3000; fill-opacity: 0; }
            62.5%   { stroke-dashoffset: 0;    fill-opacity: 0; } /* 10s: Draw complete */
            75%     { stroke-dashoffset: 0;    fill-opacity: 1; } /* 12s: Fill complete */
            87.5%   { stroke-dashoffset: 0;    fill-opacity: 0; } /* 14s: Un-fill complete */
            100%    { stroke-dashoffset: 3000; fill-opacity: 0; } /* 16s: Un-draw complete */
            }

            /* --- Keyframes for Inner Paths Cycle --- */
            @keyframes inner-cycle {
            /* === LIGHT MODE CYCLE (0% to 50%) === */
            0%, 49.9% { stroke: #000; fill: #fff; }
            0%      { stroke-dashoffset: 3000; fill-opacity: 0; }
            12.5%   { stroke-dashoffset: 0;    fill-opacity: 0; }
            25%     { stroke-dashoffset: 0;    fill-opacity: 1; }
            37.5%   { stroke-dashoffset: 0;    fill-opacity: 0; }
            50%     { stroke-dashoffset: 3000; fill-opacity: 0; }

            /* === DARK MODE CYCLE (50% to 100%) === */
            50.01%, 100% { stroke: #fff; fill: #000; }
            50.01%  { stroke-dashoffset: 3000; fill-opacity: 0; }
            62.5%   { stroke-dashoffset: 0;    fill-opacity: 0; }
            75%     { stroke-dashoffset: 0;    fill-opacity: 1; }
            87.5%   { stroke-dashoffset: 0;    fill-opacity: 0; }
            100%    { stroke-dashoffset: 3000; fill-opacity: 0; }
            }

            /* --- Staggering Delays --- */
            #Layer_2-2 g path:nth-child(1) { animation-delay: 0s; }
            #Layer_2-2 g path:nth-child(2) { animation-delay: -0.1s; }
            #Layer_2-2 g path:nth-child(3) { animation-delay: -0.2s; }
            #Layer_2-2 g path:nth-child(4) { animation-delay: -0.3s; }
            #Layer_2-2 g path:nth-child(5) { animation-delay: -0.4s; }
            #Layer_2-2 g path:nth-child(6) { animation-delay: -0.5s; }
            #Layer_2-2 g path:nth-child(7) { animation-delay: -0.6s; }
            #Layer_2-2 g path:nth-child(8) { animation-delay: -0.7s; }
            #Layer_2-2 g path:nth-child(9) { animation-delay: -0.8s; }
            #Layer_2-2 g path:nth-child(10) { animation-delay: -0.9s; }
            #Layer_2-2 g path:nth-child(11) { animation-delay: -1.0s; }
            #Layer_2-2 g path:nth-child(12) { animation-delay: -1.1s; }
            #Layer_2-2 g path:nth-child(13) { animation-delay: -1.2s; }
            #Layer_2-2 g path:nth-child(14) { animation-delay: -1.3s; }
            #Layer_2-2 g path:nth-child(15) { animation-delay: -1.4s; }
            #Layer_2-2 g path:nth-child(16) { animation-delay: -1.5s; }
            #Layer_2-2 g path:nth-child(17) { animation-delay: -1.6s; }
            #Layer_2-2 g path:nth-child(18) { animation-delay: -1.7s; }
            #Layer_2-2 g path:nth-child(19) { animation-delay: -1.8s; }
            #Layer_2-2 g path:nth-child(20) { animation-delay: -1.9s; }
            #Layer_2-2 g path:nth-child(21) { animation-delay: -2.0s; }
            #Layer_2-2 g path:nth-child(22) { animation-delay: -2.1s; }
            #Layer_2-2 g path:nth-child(23) { animation-delay: -2.2s; }
            #Layer_2-2 g path:nth-child(24) { animation-delay: -2.3s; }
            #Layer_2-2 g path:nth-child(25) { animation-delay: -2.4s; }
            #Layer_2-2 g path:nth-child(26) { animation-delay: -2.5s; }
            #Layer_2-2 g path:nth-child(27) { animation-delay: -2.6s; }
        </style>
    </defs>
    <g id="Layer_2-2" data-name="Layer 2">
        <g>
            <path d="M200.33.1c8.36-.62,16.7,1.61,24.25,5.15l161.09,94.82c11.44,7.6,18.81,20.27,19.9,34.06,4.76,60.02-3.67,126.22,0,186.89-2.34,29.57-28.24,39.3-50.36,52.59-40.57,24.38-86.35,53.65-128,74.93-16.59,8.47-28.37,9.54-45.34,1-54.41-27.4-107.06-66.05-161.26-94.65-10.81-8.03-18.02-20.22-19.1-33.86-4.76-60.02,3.67-126.22,0-186.89,1.87-23.56,15.93-31.23,33.74-42.22C83.87,61.89,134.53,34.96,183.21,4.98c5.23-2.43,11.33-4.45,17.11-4.88ZM270.77,105.46c-1.88-19.7-8.77-36.52-24.9-48.54-48.6-36.21-115.25,13.13-92.81,70.74,6.24,16.03,14.89,21.58,28.18,30.76.88.61,1.84-.16,1.31,2.22-12.75,1.95-23.24,10.52-33.37,17.92l-57-47.81c-79.35,73.29-48.64,212.23,57.13,239.92,16.05,65.82,115.12,51.52,110.21-16.69-1.26-17.54-11.72-32.68-24.98-43.46l18-8.53,53.5,45.44c83.53-65.07,67.06-206.23-35.26-241.97Z"/>
            <path d="M270.77,105.46c102.32,35.74,118.8,176.89,35.26,241.97l-53.5-45.44-18,8.53c13.26,10.78,23.72,25.92,24.98,43.46,4.91,68.21-94.16,82.52-110.21,16.69-105.77-27.69-136.48-166.62-57.13-239.92l57,47.81c10.13-7.4,20.62-15.97,33.37-17.92.53-2.39-.42-1.61-1.31-2.22-13.29-9.17-21.94-14.73-28.18-30.76-22.44-57.62,44.21-106.96,92.81-70.74,16.13,12.02,23.02,28.84,24.9,48.54ZM203.29,65c-57.56,7.89-36.66,97.94,20.51,77.44,43.56-15.62,28.6-84.17-20.51-77.44ZM90.29,166.89c-6.28-6.33-15.32,14.84-14.8,18.2s5.91,4.58,8.11,1.82c.53-.66,7.63-14.18,7.79-15,.29-1.49-.03-3.94-1.1-5.01ZM317.25,165.82c-3.47,1.03-3,4.8-1.93,7.54.4,1.02,7.68,13.21,8.28,13.75,1.92,1.72,3.82,1.06,5.94.03,3.28-2.79-1.2-10.13-2.83-13.18-2.04-3.81-4.36-9.66-9.46-8.15ZM112.23,180.82c-3.49,1.07-9.54,13.74-2.14,14.82,5.48.8,10.82-12.25,7.51-14.57-1.12-.79-4.01-.67-5.37-.25ZM290.25,180.8c-1.13.34-2.21,1.41-2.54,2.54-1.23,5.51,8.34,18.35,12.11,8.97,1.49-3.71-4.03-13.15-9.56-11.51ZM196.31,183.9c-68.98,7.89-53.75,118.08,19.07,101.97,62.46-13.83,47.8-109.61-19.07-101.97ZM74.3,219.35c.65-.67,4.34-17.24,4.24-18.22-.35-3.56-5.01-5.79-7.74-3.24-3.2,2.98-9,29,3.5,21.46ZM336.3,197.85c-2.37-1.66-5.19-1.39-7.62-.09-.94,1.49,2.13,17.87,3.07,20.11,1.71,4.09,8.88,3.65,8.79-2.75-.03-2.07-3.29-16.3-4.23-17.27ZM98.78,219.35c3.05,1.82,5.9,2.04,7.5-1.51,1.68-3.75,5.47-15.7-.46-17.08-6.42-1.49-9.6,16.05-7.04,18.59ZM305.3,201.85c-2.79-2.81-7.59-1.2-7.85,3.25-.11,1.78,2.43,11.07,3.31,12.77,2.58,5.07,8.48,2.02,8.69-1.7.1-1.66-3.14-13.3-4.15-14.32ZM96.7,247.4c1.41,2.33,7.29,2.36,8.42-1.79.2-.74-.49-14.64-.74-15.36-.49-1.42-2.15-2.07-3.5-2.44-2.65.07-4.52,1.98-5.12,4.48-.42,1.78.4,14.22.94,15.11ZM310.29,228.83c-2.37-2.4-6.81-1.16-7.52,2.44-.75,3.85-2.12,16.68,2.64,17.8,7.99,1.88,7.24-17.86,4.87-20.24ZM69.19,229.81c-7.76.71-3.78,22.02-1.67,23.26,2.38,1.4,6.42,1.07,7.01-2,.51-2.64-.74-18.58-1.98-20-.99-.66-2.11-1.37-3.36-1.26ZM341.53,249.06c.72-4.38,0-12.11,0-16.98,0-1.82-6.12-3.86-8.26.74-.59,1.26-1.62,15.38-1.44,17.12.54,5.16,8.65,5.54,9.71-.87ZM103.8,275.26c2.34,1.91,6.03.93,7.25-1.76,1.6-3.54-3.29-11.85-4-15.96-1.39-1.66-5.48-1.48-7.04,0-2.87,2.26,2.34,16.53,3.8,17.72ZM302.23,256.73c-2.69.82-10.7,19.54-2.23,19.79,6.32.18,13.25-23.15,2.23-19.79ZM72.25,263.72c-5.43,1.62-.01,15.14,1.79,18.81,3.19,6.5,10.13,4.89,9.5-1.4-.1-1.03-4.55-13.6-5.22-14.86-1.36-2.58-3.17-3.41-6.06-2.55ZM331.24,263.71c-2.71.82-8.56,18.12-7.21,20.82,1.07,2.14,4.6,2.71,6.53,1.51,2.49-1.53,13.02-26.05.68-22.33ZM117.25,282.83c-2.31-1.94-6.58-1.87-7.55,1.42-1.44,4.88,9.43,20.99,14.58,15.01.56-1.45,1.24-3.23.83-4.78-.18-.68-7.32-11.19-7.86-11.65ZM293.19,281.75c-3.33.31-11.53,12.54-10.49,16.05,3.65,12.31,23.51-17.25,10.49-16.05ZM85.2,294.65c-7.29,2.47,6.81,20.79,10.05,21.7,4.49,1.26,7.03-3.62,4.71-7.75-.75-1.34-9.15-12.72-9.85-13.15-1.58-.97-3.09-1.42-4.9-.8ZM318.25,294.7c-1.43.42-10.73,13.09-11.28,14.75-2.07,6.34,3.3,9.42,7.99,4.97.81-.76,8.94-13.1,9.17-13.9,1.08-3.91-1.63-7.08-5.88-5.82ZM229.18,332.84c-31.41-31.38-81.15,13.23-53.16,47.61,31.5,38.69,88.2-12.6,53.16-47.61Z"/>
            <path d="M196.31,183.9c66.87-7.65,81.53,88.14,19.07,101.97-72.81,16.12-88.04-94.08-19.07-101.97Z"/>
            <path d="M203.29,65c49.11-6.73,64.08,61.82,20.51,77.44-57.17,20.5-78.08-69.55-20.51-77.44Z"/>
            <path d="M229.18,332.84c35.05,35.01-21.66,86.3-53.16,47.61-27.99-34.38,21.74-78.99,53.16-47.61Z"/>
            <path d="M318.25,294.7c4.26-1.26,6.97,1.92,5.88,5.82-.22.8-8.36,13.14-9.17,13.9-4.7,4.44-10.06,1.36-7.99-4.97.54-1.66,9.85-14.33,11.28-14.75Z"/>
            <path d="M85.2,294.65c1.82-.61,3.32-.16,4.9.8.7.43,9.1,11.81,9.85,13.15,2.33,4.13-.22,9.02-4.71,7.75-3.24-.91-17.34-19.23-10.05-21.7Z"/>
            <path d="M317.25,165.82c5.11-1.51,7.42,4.34,9.46,8.15,1.64,3.05,6.11,10.38,2.83,13.18-2.12,1.03-4.03,1.69-5.94-.03-.6-.54-7.88-12.73-8.28-13.75-1.07-2.74-1.54-6.52,1.93-7.54Z"/>
            <path d="M72.25,263.72c2.9-.86,4.7-.02,6.06,2.55.67,1.26,5.12,13.83,5.22,14.86.63,6.3-6.31,7.91-9.5,1.4-1.8-3.67-7.21-17.2-1.79-18.81Z"/>
            <path d="M90.29,166.89c1.06,1.07,1.39,3.52,1.1,5.01-.16.83-7.27,14.34-7.79,15-2.2,2.76-7.58,1.67-8.11-1.82s8.52-24.53,14.8-18.2Z"/>
            <path d="M336.3,197.85c.94.97,4.2,15.21,4.23,17.27.09,6.4-7.07,6.84-8.79,2.75-.94-2.25-4.01-18.62-3.07-20.11,2.44-1.3,5.25-1.57,7.62.09Z"/>
            <path d="M331.24,263.71c12.34-3.72,1.8,20.8-.68,22.33-1.94,1.19-5.46.62-6.53-1.51-1.35-2.7,4.5-20,7.21-20.82Z"/>
            <path d="M74.3,219.35c-12.5,7.53-6.7-18.48-3.5-21.46,2.73-2.55,7.39-.32,7.74,3.24.1.98-3.58,17.55-4.24,18.22Z"/>
            <path d="M341.53,249.06c-1.06,6.41-9.17,6.03-9.71.87-.18-1.74.86-15.86,1.44-17.12,2.14-4.6,8.26-2.55,8.26-.74,0,4.87.72,12.61,0,16.98Z"/>
            <path d="M69.19,229.81c1.26-.12,2.37.6,3.36,1.26,1.24,1.42,2.49,17.36,1.98,20-.59,3.07-4.64,3.4-7.01,2-2.11-1.24-6.09-22.55,1.67-23.26Z"/>
            <path d="M117.25,282.83c.54.45,7.68,10.97,7.86,11.65.41,1.56-.27,3.33-.83,4.78-5.16,5.98-16.02-10.13-14.58-15.01.97-3.29,5.25-3.35,7.55-1.42Z"/>
            <path d="M310.29,228.83c2.36,2.39,3.11,22.12-4.87,20.24-4.76-1.12-3.39-13.95-2.64-17.8.71-3.61,5.15-4.84,7.52-2.44Z"/>
            <path d="M293.19,281.75c13.03-1.2-6.84,28.36-10.49,16.05-1.04-3.51,7.15-15.74,10.49-16.05Z"/>
            <path d="M302.23,256.73c11.03-3.37,4.1,19.97-2.23,19.79-8.48-.25-.47-18.96,2.23-19.79Z"/>
            <path d="M103.8,275.26c-1.45-1.19-6.66-15.46-3.8-17.72,1.57-1.48,5.65-1.66,7.04,0,.71,4.11,5.6,12.42,4,15.96-1.22,2.7-4.91,3.67-7.25,1.76Z"/>
            <path d="M96.7,247.4c-.54-.89-1.37-13.34-.94-15.11.6-2.5,2.47-4.41,5.12-4.48,1.35.37,3.01,1.02,3.5,2.44.25.73.94,14.62.74,15.36-1.13,4.15-7.01,4.12-8.42,1.79Z"/>
            <path d="M305.3,201.85c1.01,1.02,4.25,12.66,4.15,14.32-.22,3.72-6.11,6.77-8.69,1.7-.87-1.71-3.41-10.99-3.31-12.77.27-4.45,5.06-6.05,7.85-3.25Z"/>
            <path d="M98.78,219.35c-2.56-2.54.62-20.09,7.04-18.59,5.93,1.38,2.14,13.33.46,17.08-1.6,3.55-4.45,3.33-7.5,1.51Z"/>
            <path d="M112.23,180.82c1.36-.42,4.25-.54,5.37.25,3.31,2.32-2.03,15.36-7.51,14.57-7.4-1.08-1.35-13.75,2.14-14.82Z"/>
            <path d="M290.25,180.8c5.54-1.64,11.05,7.8,9.56,11.51-3.77,9.38-13.34-3.46-12.11-8.97.33-1.13,1.41-2.21,2.54-2.54Z"/>
        </g>
    </g>
</svg>